<svg width="512" height="512" viewBox="0 0 512 512" fill="none" xmlns="http://www.w3.org/2000/svg">
  <rect width="512" height="512" rx="128" fill="#4F46E5"/>
  <path d="M128 192H384V320H128V192Z" fill="white"/>
  <path d="M160 160H352C360.837 160 368 167.163 368 176V192H144V176C144 167.163 151.163 160 160 160Z" fill="white" opacity="0.8"/>
  <circle cx="320" cy="240" r="16" fill="#4F46E5"/>
  <circle cx="320" cy="280" r="16" fill="#4F46E5"/>
  <rect x="160" y="224" width="80" height="8" rx="4" fill="#4F46E5"/>
  <rect x="160" y="248" width="120" height="8" rx="4" fill="#4F46E5"/>
  <rect x="160" y="272" width="60" height="8" rx="4" fill="#4F46E5"/>
  <path d="M128 352H384V384C384 392.837 376.837 400 368 400H144C135.163 400 128 392.837 128 384V352Z" fill="white" opacity="0.6"/>
  <text x="256" y="440" text-anchor="middle" fill="white" font-family="Arial, sans-serif" font-size="32" font-weight="bold">POS</text>
</svg>